<svg width="32" height="32" viewBox="0 0 32 32" fill="none" xmlns="http://www.w3.org/2000/svg">
<path d="M10.202 2.09751C8.71199 2.16751 7.69499 2.40551 6.80599 2.75451C5.88599 3.11351 5.10599 3.59451 4.32899 4.37351C3.55299 5.15251 3.07499 5.93351 2.71899 6.85451C2.37399 7.74551 2.14099 8.76351 2.07499 10.2545C2.00899 11.7445 1.99499 12.2245 2.00199 16.0255C2.00899 19.8265 2.02599 20.3035 2.09799 21.7975C2.16899 23.2865 2.40599 24.3035 2.75499 25.1935C3.11399 26.1135 3.59499 26.8935 4.37399 27.6705C5.15299 28.4465 5.93299 28.9235 6.85699 29.2805C7.74699 29.6245 8.76599 29.8595 10.256 29.9245C11.746 29.9895 12.226 30.0045 16.027 29.9975C19.828 29.9905 20.306 29.9735 21.8 29.9025C23.294 29.8315 24.305 29.5935 25.195 29.2455C26.115 28.8855 26.896 28.4055 27.672 27.6255C28.448 26.8455 28.926 26.0645 29.281 25.1425C29.626 24.2525 29.86 23.2335 29.925 21.7445C29.99 20.2505 30.006 19.7735 29.998 15.9715C29.99 12.1695 29.974 11.6935 29.903 10.2005C29.832 8.70751 29.595 7.69351 29.246 6.80351C28.886 5.88351 28.406 5.10351 27.627 4.32651C26.848 3.54951 26.066 3.07251 25.144 2.71751C24.253 2.37251 23.235 2.13751 21.745 2.07351C20.255 2.00951 19.775 1.99251 15.973 1.99951C12.171 2.00651 11.695 2.02351 10.202 2.09551M10.366 27.4045C9.00099 27.3455 8.25999 27.1185 7.76599 26.9285C7.11199 26.6765 6.64599 26.3715 6.15399 25.8845C5.66199 25.3975 5.35899 24.9295 5.10399 24.2765C4.91199 23.7825 4.68099 23.0425 4.61699 21.6775C4.54799 20.2025 4.53299 19.7595 4.52499 16.0215C4.51699 12.2835 4.53099 11.8415 4.59599 10.3655C4.65399 9.00151 4.88199 8.25951 5.07199 7.76551C5.32399 7.11051 5.62799 6.64551 6.11599 6.15351C6.60399 5.66151 7.07099 5.35851 7.72399 5.10351C8.21699 4.91051 8.95799 4.68151 10.322 4.61651C11.798 4.54651 12.241 4.53251 15.978 4.52451C19.715 4.51651 20.159 4.53051 21.636 4.59551C23 4.65451 23.742 4.88051 24.235 5.07151C24.889 5.32351 25.355 5.62651 25.847 6.11551C26.339 6.60451 26.642 7.06951 26.898 7.72451C27.091 8.21651 27.32 8.95651 27.384 10.3215C27.454 11.7975 27.47 12.2405 27.477 15.9775C27.484 19.7145 27.471 20.1585 27.406 21.6335C27.346 22.9985 27.12 23.7395 26.93 24.2345C26.678 24.8885 26.374 25.3545 25.885 25.8465C25.396 26.3385 24.93 26.6415 24.277 26.8965C23.784 27.0885 23.043 27.3185 21.68 27.3835C20.204 27.4525 19.761 27.4675 16.023 27.4755C12.285 27.4835 11.842 27.4685 10.366 27.4045ZM21.779 8.51651C21.781 9.44451 22.534 10.1955 23.462 10.1935C24.39 10.1915 25.141 9.43851 25.139 8.51051C25.137 7.58251 24.384 6.83151 23.456 6.83351C22.528 6.83551 21.778 7.58851 21.779 8.51651ZM8.81199 16.0125C8.81999 19.9825 12.044 23.1945 16.014 23.1865C19.984 23.1785 23.197 19.9545 23.19 15.9845C23.182 12.0145 19.957 8.80151 15.987 8.80951C12.017 8.81751 8.80399 12.0425 8.81199 16.0125ZM11.335 16.0075C11.33 13.4305 13.415 11.3365 15.993 11.3315C18.57 11.3265 20.664 13.4115 20.669 15.9895C20.674 18.5665 18.589 20.6605 16.011 20.6655C13.434 20.6705 11.34 18.5865 11.335 16.0095" fill="#FFF6E8"/>
</svg>
