<svg width="24" height="24" viewBox="0 0 24 24" fill="none" xmlns="http://www.w3.org/2000/svg">
<g clip-path="url(#clip0_16121_314)">
<path d="M12 2.5C15.5889 2.5 18.5 5.41114 18.5 9C18.5 10.2113 18.0936 11.6058 17.4502 13.042C16.8097 14.4716 15.9515 15.9066 15.0859 17.1895C14.2213 18.4709 13.3549 19.591 12.7051 20.3916C12.4234 20.7387 12.182 21.0246 12 21.2373C11.818 21.0246 11.5766 20.7387 11.2949 20.3916C10.6451 19.591 9.77865 18.4709 8.91406 17.1895C8.04854 15.9066 7.19028 14.4716 6.5498 13.042C5.90639 11.6058 5.5 10.2113 5.5 9C5.5 5.41114 8.41114 2.5 12 2.5ZM12 6C10.3439 6 9 7.34386 9 9C9 10.6561 10.3439 12 12 12C13.6561 12 15 10.6561 15 9C15 7.34386 13.6561 6 12 6Z" fill="#FFF6E8" stroke="#FFF6E8"/>
</g>
<defs>
<clipPath id="clip0_16121_314">
<rect width="24" height="24" fill="white"/>
</clipPath>
</defs>
</svg>
