<svg width="24" height="24" viewBox="0 0 24 24" fill="none" xmlns="http://www.w3.org/2000/svg">
<path d="M21.2502 14.8162C21.2502 14.4649 21.0659 14.1394 20.7647 13.9587L17.0494 11.7295C16.5992 11.4594 16.0168 11.5835 15.7157 12.0136L14.6997 13.465C14.3956 13.8995 13.8027 14.0241 13.3724 13.7143C12.1844 12.8593 11.141 11.8159 10.2859 10.6279C9.97611 10.1975 10.1008 9.60462 10.5352 9.30054L11.9866 8.2845C12.4168 7.98342 12.5408 7.40097 12.2707 6.95077L10.0415 3.2355C9.86079 2.9343 9.53528 2.75 9.18402 2.75H5.75021C4.09336 2.75 2.72464 4.10182 2.99014 5.73727C4.26041 13.5617 10.4385 19.7398 18.263 21.0101C19.8984 21.2756 21.2502 19.9069 21.2502 18.25V14.8162Z" stroke="#FFF6E8" stroke-width="1.5" stroke-linecap="round"/>
</svg>
