<svg width="57" height="56" viewBox="0 0 57 56" fill="none" xmlns="http://www.w3.org/2000/svg">
<path d="M28.248 1C43.2879 1 55.4971 13.0794 55.4971 28C55.4971 42.9206 43.2879 55 28.248 55C13.2083 54.9998 1 42.9205 1 28C1 13.0795 13.2083 1.00016 28.248 1Z" fill="#77C2F3" stroke="#FFF6E8" stroke-width="2"/>
<path d="M54.4967 28C54.4967 42.3594 42.7449 54 28.2483 54C13.7518 54 2 42.3594 2 28C2 13.6406 13.7518 2 28.2483 2C42.7449 2 54.4967 13.6406 54.4967 28Z" fill="#77C2F3"/>
<path d="M54.4967 28C54.4967 42.3594 42.7449 54 28.2483 54C13.7518 54 2 42.3594 2 28C2 13.6406 13.7518 2 28.2483 2C42.7449 2 54.4967 13.6406 54.4967 28Z" fill="#77C2F3"/>
<path d="M37.9266 23.3927C39.4914 23.3927 40.8491 23.632 41.9997 24.1107C43.1734 24.5666 44.0593 25.2048 44.6577 26.0254C45.279 26.8232 45.5896 27.7464 45.5896 28.795C45.5896 29.3876 45.5091 29.9347 45.348 30.4362C44.6807 32.7384 42.7591 34.1973 39.5835 34.8127C40.688 35.1318 41.5625 35.6675 42.2069 36.4197C42.8512 37.1492 43.1734 38.0609 43.1734 39.1551C43.1734 39.6565 43.0813 40.2492 42.8972 40.933C42.3909 42.711 41.3669 44.0331 39.8251 44.8993C38.3063 45.7427 36.1431 46.1644 33.3356 46.1644H18.976C18.4927 46.1644 18.1245 46.0846 17.8714 45.925C17.5952 45.7655 17.4572 45.5489 17.4572 45.2754C17.4572 45.1386 17.4917 44.9905 17.5607 44.8309C17.6528 44.5802 17.8024 44.3864 18.0095 44.2496C18.2166 44.1129 18.3431 44.0331 18.3892 44.0103C18.7574 43.7824 19.0565 43.5544 19.2866 43.3265C19.5168 43.0757 19.7124 42.6768 19.8735 42.1298L24.0847 27.3931C24.1768 27.0968 24.2228 26.8118 24.2228 26.5383C24.2228 26.2876 24.1768 26.0824 24.0847 25.9228C24.0157 25.7405 23.9121 25.5353 23.774 25.3074C23.5669 25.0111 23.4634 24.7717 23.4634 24.5894C23.4634 24.521 23.4864 24.3956 23.5324 24.2133C23.6245 23.9169 23.8201 23.7118 24.1192 23.5978C24.4414 23.461 24.9247 23.3927 25.569 23.3927H37.9266ZM36.3732 29.6498C36.5343 29.1483 36.6149 28.681 36.6149 28.2479C36.6149 27.0626 35.936 26.4699 34.5783 26.4699H33.025L31.1955 32.8638H32.7143C33.6808 32.8638 34.4402 32.6358 34.9925 32.1799C35.5678 31.7013 36.0281 30.8579 36.3732 29.6498ZM33.8534 39.7021C34.0145 39.1551 34.095 38.6536 34.095 38.1977C34.095 36.9668 33.3817 36.3513 31.9549 36.3513H30.229L28.2614 43.0871H30.0219C31.0114 43.0871 31.8053 42.8478 32.4036 42.3691C33.0019 41.8676 33.4852 40.9786 33.8534 39.7021Z" fill="#1C0221"/>
<path d="M31.0948 18.7625C32.6596 18.7625 34.0174 19.0019 35.168 19.4805C36.3416 19.9364 37.2276 20.5747 37.8259 21.3953C38.4472 22.1931 38.7579 23.1163 38.7579 24.1648C38.7579 24.7575 38.6773 25.3045 38.5163 25.806C37.8489 28.1083 35.9274 29.5671 32.7517 30.1826C33.8563 30.5017 34.7307 31.0374 35.3751 31.7896C36.0194 32.519 36.3416 33.4308 36.3416 34.5249C36.3416 35.0264 36.2496 35.6191 36.0655 36.3029C35.5592 38.0809 34.5351 39.403 32.9933 40.2691C31.4745 41.1125 29.3114 41.5342 26.5039 41.5342H12.1442C11.661 41.5342 11.2928 41.4545 11.0396 41.2949C10.7635 41.1353 10.6254 40.9188 10.6254 40.6453C10.6254 40.5085 10.6599 40.3603 10.729 40.2008C10.821 39.95 10.9706 39.7563 11.1777 39.6195C11.3848 39.4827 11.5114 39.403 11.5574 39.3802C11.9256 39.1522 12.2248 38.9243 12.4549 38.6963C12.685 38.4456 12.8806 38.0467 13.0417 37.4996L17.2529 22.763C17.345 22.4666 17.391 22.1817 17.391 21.9082C17.391 21.6574 17.345 21.4523 17.2529 21.2927C17.1839 21.1104 17.0803 20.9052 16.9423 20.6773C16.7352 20.3809 16.6316 20.1416 16.6316 19.9592C16.6316 19.8909 16.6546 19.7655 16.7006 19.5831C16.7927 19.2868 16.9883 19.0816 17.2875 18.9677C17.6096 18.8309 18.0929 18.7625 18.7372 18.7625H31.0948ZM29.5415 25.0196C29.7026 24.5181 29.7831 24.0508 29.7831 23.6178C29.7831 22.4324 29.1042 21.8398 27.7465 21.8398H26.1932L24.3637 28.2336H25.8825C26.8491 28.2336 27.6085 28.0057 28.1607 27.5498C28.7361 27.0711 29.1963 26.2277 29.5415 25.0196ZM27.0216 35.072C27.1827 34.5249 27.2633 34.0235 27.2633 33.5676C27.2633 32.3367 26.5499 31.7212 25.1231 31.7212H23.3972L21.4297 38.457H23.1901C24.1796 38.457 24.9736 38.2176 25.5719 37.739C26.1702 37.2375 26.6534 36.3485 27.0216 35.072Z" fill="#FFF6E8"/>
<path d="M41.1927 15.1781C41.1927 16.1616 40.3878 16.9589 39.3949 16.9589C38.402 16.9589 37.5971 16.1616 37.5971 15.1781C37.5971 14.1946 38.402 13.3973 39.3949 13.3973C40.3878 13.3973 41.1927 14.1946 41.1927 15.1781Z" fill="#FFF6E8"/>
<path d="M12.0679 33.5205C12.0679 34.7991 11.0215 35.8356 9.73068 35.8356C8.43989 35.8356 7.3935 34.7991 7.3935 33.5205C7.3935 32.242 8.43989 31.2055 9.73068 31.2055C11.0215 31.2055 12.0679 32.242 12.0679 33.5205Z" fill="#FFF6E8"/>
<path d="M8.4722 25.863C8.4722 26.6498 7.82826 27.2877 7.03393 27.2877C6.2396 27.2877 5.59566 26.6498 5.59566 25.863C5.59566 25.0762 6.2396 24.4384 7.03393 24.4384C7.82826 24.4384 8.4722 25.0762 8.4722 25.863Z" fill="#FFF6E8"/>
<path d="M49.4628 32.9863C49.4628 33.7731 48.8188 34.411 48.0245 34.411C47.2302 34.411 46.5862 33.7731 46.5862 32.9863C46.5862 32.1995 47.2302 31.5616 48.0245 31.5616C48.8188 31.5616 49.4628 32.1995 49.4628 32.9863Z" fill="#FFF6E8"/>
<path d="M50.901 27.4658C50.901 27.9575 50.4986 28.3562 50.0021 28.3562C49.5057 28.3562 49.1032 27.9575 49.1032 27.4658C49.1032 26.974 49.5057 26.5753 50.0021 26.5753C50.4986 26.5753 50.901 26.974 50.901 27.4658Z" fill="#FFF6E8"/>
<path d="M12.0679 17.3151C12.0679 17.7085 11.7459 18.0274 11.3487 18.0274C10.9516 18.0274 10.6296 17.7085 10.6296 17.3151C10.6296 16.9217 10.9516 16.6027 11.3487 16.6027C11.7459 16.6027 12.0679 16.9217 12.0679 17.3151Z" fill="#FFF6E8"/>
<path d="M39.0353 9.30137C39.0353 10.9734 37.667 12.3288 35.979 12.3288C34.2911 12.3288 32.9227 10.9734 32.9227 9.30137C32.9227 7.62938 34.2911 6.27397 35.979 6.27397C37.667 6.27397 39.0353 7.62938 39.0353 9.30137Z" fill="#FFF6E8"/>
<path d="M27.8888 5.20548C27.8888 5.79559 27.4058 6.27397 26.8101 6.27397C26.2143 6.27397 25.7314 5.79559 25.7314 5.20548C25.7314 4.61537 26.2143 4.13699 26.8101 4.13699C27.4058 4.13699 27.8888 4.61537 27.8888 5.20548Z" fill="#FFF6E8"/>
</svg>
