<svg width="104" height="108" viewBox="0 0 104 108" fill="none" xmlns="http://www.w3.org/2000/svg">
<ellipse cx="52" cy="54" rx="38" ry="37.5" fill="#43C59E"/>
<path d="M52 17C72.7169 17 89.5 33.5717 89.5 54C89.5 74.4283 72.7169 91 52 91C31.2831 91 14.5 74.4283 14.5 54C14.5 33.5717 31.2831 17 52 17Z" stroke="black" stroke-opacity="0.66"/>
<g clip-path="url(#clip0_16097_361)">
<path d="M75.7525 49.83L69.196 39.1213C68.8135 38.4973 67.8235 37.9861 67 37.9861H51.91C51.8935 37.9848 51.877 37.9822 51.8605 37.981C51.847 37.981 51.8335 37.9848 51.82 37.9861H37C36.175 37.9861 35.1835 38.496 34.795 39.1174L28.2565 49.6198C27.868 50.2425 27.946 51.2188 28.426 51.7928L50.9275 78.5851C51.169 78.8721 51.49 79.0181 51.8095 79.0181C52.1275 79.0181 52.4455 78.8772 52.69 78.594L75.5605 51.9978C76.048 51.429 76.135 50.4552 75.7525 49.8312V49.83ZM72.1735 49.5161H64.1365L67.3555 41.6441L72.1735 49.5161ZM54.9685 40.5499H64.6225L61.627 47.8735L54.9685 40.5499ZM59.323 49.5161H45.3715L51.9655 41.4237L59.323 49.5161ZM42.7135 48.2937L39.7045 40.5499H49.024L42.7135 48.2937ZM59.9095 52.0786L51.8455 71.7995L44.1835 52.0786H59.9095ZM48.481 71.2755L32.359 52.0786H41.023L48.481 71.2755ZM63.088 52.0786H71.7685L55.2235 71.3204L63.088 52.0786ZM36.835 41.2994L40.027 49.5161H31.7185L36.835 41.2994Z" fill="#1C0221"/>
</g>
<defs>
<clipPath id="clip0_16097_361">
<rect width="48" height="41" fill="white" transform="translate(28 38)"/>
</clipPath>
</defs>
</svg>
