<svg width="104" height="108" viewBox="0 0 104 108" fill="none" xmlns="http://www.w3.org/2000/svg">
<ellipse cx="52" cy="54" rx="38" ry="37.5" fill="#FF9FA7"/>
<path d="M52 17C72.7169 17 89.5 33.5717 89.5 54C89.5 74.4283 72.7169 91 52 91C31.2831 91 14.5 74.4283 14.5 54C14.5 33.5717 31.2831 17 52 17Z" stroke="black" stroke-opacity="0.66"/>
<path fill-rule="evenodd" clip-rule="evenodd" d="M33.125 63.75C33.125 58.4304 36.5158 53.9026 41.254 52.2105C42.5418 51.7505 43.9292 51.5 45.375 51.5C46.8208 51.5 48.2082 51.7505 49.4959 52.2105C50.1956 52.4602 50.8657 52.772 51.5 53.1388C52.1343 52.772 52.8044 52.4602 53.5041 52.2105C54.7918 51.7505 56.1791 51.5 57.625 51.5C59.0709 51.5 60.4582 51.7505 61.7459 52.2105C66.4842 53.9026 69.875 58.4304 69.875 63.75V69.875H59.1563V66.8125H66.8125V63.75C66.8125 58.6758 62.6992 54.5625 57.625 54.5625C56.4059 54.5625 55.2424 54.7999 54.1779 55.2311C56.3118 57.4357 57.625 60.4394 57.625 63.75V69.875H33.125V63.75ZM45.375 49.9688C43.9684 49.9688 42.6504 49.5894 41.5176 48.9275C39.2453 47.5996 37.7188 45.1343 37.7188 42.3125C37.7188 38.0841 41.1466 34.6562 45.375 34.6562C47.8795 34.6562 50.1031 35.8588 51.5 37.718C52.8969 35.8588 55.1205 34.6562 57.625 34.6562C61.8535 34.6562 65.2812 38.0841 65.2812 42.3125C65.2812 45.1343 63.7547 47.5996 61.4823 48.9275C60.3496 49.5894 59.0317 49.9688 57.625 49.9688C56.2183 49.9688 54.9004 49.5894 53.7677 48.9275C52.8834 48.4108 52.1123 47.7219 51.5 46.907C50.8877 47.7221 50.1166 48.4108 49.2323 48.9275C48.0996 49.5894 46.7816 49.9688 45.375 49.9688ZM54.5625 63.75V66.8125H36.1875V63.75C36.1875 58.6758 40.3009 54.5625 45.375 54.5625C50.4492 54.5625 54.5625 58.6758 54.5625 63.75ZM49.9688 42.3125C49.9688 44.8496 47.912 46.9062 45.375 46.9062C42.8379 46.9062 40.7813 44.8496 40.7813 42.3125C40.7813 39.7754 42.8379 37.7188 45.375 37.7188C47.912 37.7188 49.9688 39.7754 49.9688 42.3125ZM57.625 37.7188C55.088 37.7188 53.0312 39.7754 53.0312 42.3125C53.0312 44.8496 55.088 46.9062 57.625 46.9062C60.162 46.9062 62.2188 44.8496 62.2188 42.3125C62.2188 39.7754 60.162 37.7188 57.625 37.7188Z" fill="black"/>
</svg>
