<svg width="104" height="108" viewBox="0 0 104 108" fill="none" xmlns="http://www.w3.org/2000/svg">
<ellipse cx="52" cy="54" rx="38" ry="37.5" fill="#43C59E"/>
<path d="M52 17C72.7169 17 89.5 33.5717 89.5 54C89.5 74.4283 72.7169 91 52 91C31.2831 91 14.5 74.4283 14.5 54C14.5 33.5717 31.2831 17 52 17Z" stroke="black" stroke-opacity="0.66"/>
<path d="M62.9633 59.5391H41.0175V72.3424H62.9633V59.5391Z" stroke="#020202" stroke-width="3" stroke-miterlimit="10"/>
<path d="M66.6433 52.2173H68.56C69.5209 52.2424 70.4333 52.6444 71.1003 53.3365C71.7673 54.0286 72.1354 54.9553 72.125 55.9165V68.7198C72.125 69.6907 71.7393 70.6218 71.0528 71.3084C70.3662 71.9949 69.4351 72.3806 68.4642 72.3806H62.9825V55.9165C62.9825 54.9455 63.3682 54.0144 64.0547 53.3279C64.7413 52.6413 65.6724 52.2556 66.6433 52.2556V52.2173Z" stroke="#020202" stroke-width="3" stroke-miterlimit="10"/>
<path d="M35.5359 52.2173H37.4525C38.4134 52.2424 39.3259 52.6444 39.9929 53.3365C40.6599 54.0286 41.0279 54.9553 41.0175 55.9165V72.3806H35.5359C35.0519 72.3806 34.5727 72.2847 34.126 72.0983C33.6793 71.912 33.274 71.6389 32.9336 71.2949C32.5932 70.9509 32.3243 70.5428 32.1426 70.0942C31.9609 69.6456 31.8699 69.1654 31.875 68.6815V55.9165C31.8699 55.4325 31.9609 54.9523 32.1426 54.5037C32.3243 54.0551 32.5932 53.647 32.9336 53.303C33.274 52.959 33.6793 52.6859 34.126 52.4996C34.5727 52.3132 35.0519 52.2173 35.5359 52.2173Z" stroke="#020202" stroke-width="3" stroke-miterlimit="10"/>
<path d="M37.3567 52.2177V39.4144C37.3567 37.9555 37.9362 36.5563 38.9678 35.5247C39.9995 34.4931 41.3986 33.9136 42.8575 33.9136H61.1425C62.6014 33.9136 64.0006 34.4931 65.0322 35.5247C66.0638 36.5563 66.6434 37.9555 66.6434 39.4144V52.2177" stroke="#020202" stroke-width="3" stroke-miterlimit="10"/>
<path d="M37.3567 76.0031V72.3423" stroke="#020202" stroke-width="3" stroke-miterlimit="10"/>
<path d="M66.6433 76.0031V72.3423" stroke="#020202" stroke-width="3" stroke-miterlimit="10"/>
<path d="M44.6783 41.2349H48.3392" stroke="#020202" stroke-width="3" stroke-miterlimit="10"/>
<path d="M55.6608 41.2349H59.3217" stroke="#020202" stroke-width="3" stroke-miterlimit="10"/>
<path d="M44.6783 48.5566H48.3392" stroke="#020202" stroke-width="3" stroke-miterlimit="10"/>
<path d="M55.6608 48.5566H59.3217" stroke="#020202" stroke-width="3" stroke-miterlimit="10"/>
</svg>
