<svg width="104" height="108" viewBox="0 0 104 108" fill="none" xmlns="http://www.w3.org/2000/svg">
<ellipse cx="52" cy="54" rx="38" ry="37.5" fill="#FF9FA7"/>
<path d="M52 17C72.7169 17 89.5 33.5717 89.5 54C89.5 74.4283 72.7169 91 52 91C31.2831 91 14.5 74.4283 14.5 54C14.5 33.5717 31.2831 17 52 17Z" stroke="black" stroke-opacity="0.66"/>
<g clip-path="url(#clip0_16097_396)">
<path fill-rule="evenodd" clip-rule="evenodd" d="M66.3746 53.5171C63.2327 56.6522 58.5095 57.1756 54.7881 55.1748L38.5931 71.3397C37.497 72.4331 35.7203 72.4331 34.6229 71.3397C33.5282 70.245 33.5282 68.4739 34.6229 67.3792L50.8206 51.2142C48.8185 47.5024 49.3432 42.7915 52.4838 39.6563C54.3671 37.7772 56.8244 36.8834 59.2912 36.8533C56.7069 39.5976 56.741 43.9053 59.4293 46.5881C62.1161 49.2695 66.4321 49.3036 69.1818 46.7247C69.1517 49.1861 68.2579 51.6379 66.3746 53.5171ZM70.8505 41.3387C70.159 42.115 69.011 43.1031 67.3655 44.6078C65.623 46.3462 63.1562 46.3462 61.4137 44.6078C59.6698 42.8666 59.6698 40.4066 61.4137 38.6669C63.0195 37.0638 64.7456 35.1654 64.7183 35.1572C60.0511 33.0075 54.3453 33.8384 50.4995 37.676C46.994 41.1733 45.995 46.2109 47.4696 50.5992L32.6399 65.4002C30.4478 67.5869 30.4478 71.1334 32.6399 73.3201C34.832 75.5067 38.3853 75.5067 40.5775 73.3201L55.4058 58.5204C59.8064 59.995 64.8536 58.9947 68.3591 55.4974C72.1994 51.6639 72.9975 45.9922 70.8505 41.3387Z" fill="black"/>
</g>
<defs>
<clipPath id="clip0_16097_396">
<rect width="41" height="41" fill="white" transform="translate(31 34)"/>
</clipPath>
</defs>
</svg>
