<svg width="33" height="30" viewBox="0 0 33 30" fill="none" xmlns="http://www.w3.org/2000/svg">
<g opacity="0.63">
<path d="M26.5385 8.36991H22.2V1.17555C22.2 0.517241 21.6923 0 21.0462 0H11.9538C11.3077 0 10.8 0.517241 10.8 1.17555V8.36991H6.46154C2.90769 8.36991 0 11.3323 0 14.953V23.4169C0 27.0376 2.90769 30 6.46154 30H26.5385C30.0923 30 33 27.0376 33 23.4169V14.953C33 11.3323 30.0923 8.36991 26.5385 8.36991ZM7.93846 10.2508H25.0154V28.1191H7.93846V10.2508ZM12.6462 1.88088H20.3538V8.36991H12.6462V1.88088ZM1.84615 23.3699V14.906C1.84615 12.4138 3.73846 10.3918 6.13846 10.2038V28.0251C3.69231 27.884 1.84615 25.8621 1.84615 23.3699ZM31.1538 23.3699C31.1538 25.8621 29.2615 27.884 26.8615 28.0721V10.2508C29.2615 10.4389 31.1538 12.4608 31.1538 14.953V23.3699Z" fill="#FFF6E8"/>
<path d="M21 18.2446H17.4V14.5769H15.5539V18.2446H11.9539V20.1255H15.5539V23.7462H17.4V20.1255H21V18.2446Z" fill="#FFF6E8"/>
</g>
</svg>
