<svg width="34" height="34" viewBox="0 0 34 34" fill="none" xmlns="http://www.w3.org/2000/svg">
<g clip-path="url(#clip0_16188_412)">
<path d="M18.9656 25.5C17.4781 25.5 15.5656 28.1031 15.5656 29.75H12.8031C11.9 29.75 11.1031 30.6 11.1031 31.6093C11.1031 32.6718 11.8469 33.4156 12.8031 33.4156H24.7562C31.6625 33.4687 33.5219 27.2531 32.9375 22.8968C32.9375 22.8968 27.0406 29.1656 25.4469 29.1656C25.5 22.6843 20.7187 16.575 17.5844 13.7593C15.8312 12.1656 15.3531 7.96872 15.3531 7.96872V5.73747C15.3531 3.4531 15.1938 1.00935 14.7156 0.690597C13.8656 0.106222 12.3781 3.13435 11.1562 3.13435C4.94063 3.13435 5.84375 7.38435 4.51562 7.38435H1.7C0.53125 7.38435 0.53125 8.3406 0.53125 8.9781C0.6375 10.7312 1.54062 12.1656 5.84375 12.1656C6.90625 12.1656 8.55313 13.6531 8.55313 16.3625V30.2281H8.5H7.96875C7.38437 30.2281 6.90625 30.7062 6.90625 31.2906V32.3531C6.90625 32.9375 7.38437 33.4156 7.96875 33.4156H16.3359" stroke="#FFF6E8" stroke-linejoin="round"/>
</g>
<defs>
<clipPath id="clip0_16188_412">
<rect width="34" height="34" fill="white"/>
</clipPath>
</defs>
</svg>
