<svg width="35" height="35" viewBox="0 0 35 35" fill="none" xmlns="http://www.w3.org/2000/svg">
<path d="M30.0346 30.1358H24.0479V26.2071C24.0479 24.4647 23.365 22.8222 22.1249 21.5821C20.8849 20.3421 19.2424 19.6591 17.5 19.6591C13.8895 19.6591 10.9521 22.5965 10.9521 26.207V30.1358H4.96548V18.5367H12.6359V17.4141H4.96548V14.795H30.0346V17.4142H22.3642V18.5367H30.0346V22.4652H31.157V14.795H33.5278L17.5001 0L10.7586 6.22296L11.5198 7.04778L17.5001 1.52763L30.657 13.6726H4.343L10.3974 8.08397L9.63599 7.25915L1.47211 14.795H3.84295V35H31.157V23.9618H30.0345V30.1358H30.0346ZM10.9521 33.8775H4.96548V31.2583H10.9521V33.8775ZM22.9253 33.8775H12.0746V26.2071C12.0746 23.2155 14.5084 20.7817 17.5001 20.7817C18.9426 20.7817 20.3032 21.3477 21.3312 22.3758C22.3592 23.4039 22.9253 24.7645 22.9253 26.207V33.8775ZM30.0345 33.8775H24.0479V31.2583H30.0345V33.8775Z" fill="white"/>
<path d="M17.5001 23.5878V23.0266C17.4683 23.0266 14.3196 23.0716 14.3196 26.9554H15.4422C15.4422 24.2606 17.2934 24.1526 17.5045 24.1491L17.5001 23.5878Z" fill="white"/>
<path d="M16.0031 28.2651H13.7581V29.3877H16.0031V28.2651Z" fill="white"/>
<path d="M8.89389 20.782H6.6489V21.9045H8.89389V20.782Z" fill="white"/>
<path d="M28.3505 20.782H26.1056V21.9045H28.3505V20.782Z" fill="white"/>
<path d="M21.9897 10.3052H13.0097V11.4277H21.9897V10.3052Z" fill="white"/>
<path d="M19.3706 6.93774H15.6289V8.06027H19.3706V6.93774Z" fill="white"/>
</svg>
