<svg width="29" height="29" viewBox="0 0 29 29" fill="none" xmlns="http://www.w3.org/2000/svg">
<g clip-path="url(#clip0_16188_176)">
<path d="M20.9355 0C18.3551 0 15.9533 1.27625 14.5 3.3756C13.0468 1.27625 10.645 0 8.06447 0C3.74896 0 0.238045 3.51091 0.238045 7.82642C0.238045 9.5452 0.785034 11.1766 1.81996 12.5442L14.131 28.8164C14.2184 28.9321 14.355 29 14.5 29C14.645 29 14.7815 28.9321 14.869 28.8164L20.4662 21.4184C20.6204 21.2146 20.5801 20.9244 20.3763 20.7702C20.1725 20.616 19.8823 20.6562 19.728 20.86L14.5 27.7702L2.55804 11.9858C1.64578 10.7802 1.16358 9.34195 1.16358 7.82642C1.16358 4.02125 4.2593 0.925532 8.06447 0.925532C10.5658 0.925532 12.8769 2.28576 14.0957 4.47544C14.1774 4.62217 14.3321 4.71312 14.5 4.71312C14.6679 4.71312 14.8226 4.62217 14.9043 4.47544C16.1233 2.28576 18.4342 0.925532 20.9355 0.925532C24.7407 0.925532 27.8364 4.02125 27.8364 7.82642C27.8364 9.34195 27.3543 10.7802 26.442 11.9859L20.8448 19.3838C20.6906 19.5877 20.7309 19.8779 20.9347 20.0321C21.1387 20.1863 21.4288 20.1461 21.583 19.9423L27.18 12.5443C28.2149 11.1766 28.762 9.5452 28.762 7.82642C28.762 3.51091 25.251 0 20.9355 0Z" fill="#FFF6E8"/>
<path d="M12.5244 20.3901C13.2668 20.3901 13.9723 20.1017 14.5001 19.5989C15.0278 20.1017 15.7333 20.3901 16.4757 20.3901C18.0549 20.3901 19.3397 19.1053 19.3397 17.5261C19.3397 16.2658 18.5239 15.1736 17.3526 14.7994C17.2222 13.3402 15.9926 12.1926 14.5001 12.1926C13.0076 12.1926 11.7781 13.3402 11.6476 14.7994C10.4763 15.1736 9.66058 16.2658 9.66058 17.5262C9.66045 19.1053 10.9452 20.3901 12.5244 20.3901ZM12.1825 15.6184C12.4109 15.5778 12.574 15.3744 12.5638 15.1426C12.5626 15.114 12.5616 15.0855 12.5616 15.0565C12.5616 13.9877 13.4312 13.1181 14.5001 13.1181C15.5689 13.1181 16.4385 13.9877 16.4385 15.0565C16.4385 15.0855 16.4374 15.1143 16.4362 15.143C16.4263 15.3745 16.5893 15.5778 16.8176 15.6184C17.7427 15.7829 18.4141 16.5851 18.4141 17.5261C18.4141 18.595 17.5446 19.4645 16.4757 19.4645C15.8397 19.4645 15.2434 19.1515 14.8806 18.6271C14.7942 18.5022 14.652 18.4277 14.5001 18.4277C14.3481 18.4277 14.2059 18.5022 14.1195 18.6272C13.7567 19.1515 13.1604 19.4646 12.5245 19.4646C11.4556 19.4646 10.586 18.595 10.586 17.5262C10.586 16.5852 11.2574 15.7829 12.1825 15.6184Z" fill="#FFF6E8"/>
<path d="M13.0939 10.0078C13.3152 10.1355 13.5982 10.0595 13.7259 9.83798C14.097 9.194 14.1783 8.33331 13.9487 7.47652C13.5457 5.97277 12.3479 5.03151 11.2216 5.33299C10.0953 5.63477 9.52866 7.04911 9.93157 8.55291C10.1612 9.40971 10.6619 10.1145 11.3052 10.4866C11.3782 10.5288 11.4579 10.5489 11.5365 10.5489C11.6963 10.5489 11.8517 10.466 11.9375 10.3177C12.0655 10.0965 11.9898 9.81336 11.7686 9.68539C11.3423 9.43877 10.9897 8.92584 10.8256 8.31332C10.5659 7.34429 10.857 6.38883 11.4611 6.22699C12.0653 6.06496 12.795 6.74701 13.0547 7.71605C13.2188 8.32862 13.17 8.94904 12.924 9.37577C12.7963 9.59722 12.8724 9.88019 13.0939 10.0078Z" fill="#FFF6E8"/>
<path d="M7.62811 10.6254C7.93341 10.4117 8.32361 10.5054 8.52902 10.5804C8.93558 10.7289 9.33861 11.0566 9.63485 11.4797C9.99864 11.9991 10.1649 12.5989 10.0797 13.084C10.0355 13.3357 10.2037 13.5756 10.4554 13.6198C10.7072 13.6642 10.9471 13.4958 10.9912 13.2441C11.1198 12.5121 10.9017 11.6754 10.3929 10.9488C9.98457 10.3657 9.43536 9.92606 8.84635 9.71103C8.20879 9.47829 7.57128 9.53524 7.09716 9.86726C6.14207 10.536 6.09327 12.0589 6.98622 13.3342C7.49502 14.0608 8.20657 14.5518 8.93841 14.6814C8.96575 14.6863 8.99284 14.6886 9.01968 14.6886C9.23983 14.6886 9.43506 14.5308 9.47479 14.3065C9.51934 14.0548 9.35145 13.8146 9.09983 13.7701C8.61485 13.6842 8.10809 13.3228 7.74435 12.8034C7.16904 11.9815 7.1158 10.9841 7.62811 10.6254Z" fill="#FFF6E8"/>
<path d="M19.9001 13.7701C19.6484 13.8147 19.4805 14.0548 19.5251 14.3064C19.5649 14.5308 19.76 14.6886 19.9803 14.6886C20.0071 14.6886 20.0342 14.6862 20.0615 14.6814C20.7933 14.5518 21.5049 14.0607 22.0137 13.3341C22.4221 12.751 22.6473 12.0845 22.6478 11.4575C22.6485 10.7788 22.3769 10.1992 21.9028 9.86721C20.9477 9.19836 19.5 9.67346 18.607 10.9487C18.0982 11.6754 17.8802 12.5119 18.0087 13.244C18.053 13.4957 18.293 13.6642 18.5446 13.6197C18.7963 13.5755 18.9646 13.3356 18.9203 13.0839C18.8351 12.5988 19.0014 11.9991 19.3652 11.4795C19.9406 10.6577 20.8597 10.2665 21.3719 10.6253C21.6773 10.8391 21.7226 11.2379 21.7224 11.4565C21.722 11.8893 21.5518 12.3802 21.2556 12.8032C20.8918 13.3227 20.3851 13.6842 19.9001 13.7701Z" fill="#FFF6E8"/>
<path d="M17.2314 9.68554C17.0102 9.81351 16.9345 10.0966 17.0625 10.3178C17.1483 10.4661 17.3037 10.549 17.4636 10.549C17.5422 10.549 17.6218 10.5289 17.6948 10.4867C18.3382 10.1146 18.8389 9.40979 19.0685 8.553C19.4714 7.04925 18.9048 5.63492 17.7785 5.33313C17.2193 5.18344 16.6008 5.34788 16.0814 5.78461C15.6015 6.18814 15.2357 6.78905 15.0515 7.47666C14.8218 8.33346 14.9031 9.19414 15.2742 9.83813C15.4019 10.0595 15.6848 10.1355 15.9063 10.008C16.1277 9.88033 16.2037 9.59737 16.0761 9.37598C15.8302 8.94918 15.7813 8.32877 15.9454 7.71619C16.0791 7.21739 16.3458 6.77153 16.677 6.49301C16.8444 6.35233 17.179 6.13057 17.539 6.22713C18.1431 6.38898 18.4342 7.34444 18.1745 8.31347C18.0103 8.92598 17.6578 9.43891 17.2314 9.68554Z" fill="#FFF6E8"/>
</g>
<defs>
<clipPath id="clip0_16188_176">
<rect width="29" height="29" fill="white"/>
</clipPath>
</defs>
</svg>
